<?xml version="1.0" encoding="UTF-8"?>
<svg id="Pan" xmlns="http://www.w3.org/2000/svg" viewBox="0 0 512 512">
    <path
        d="M118.33,290.48c19.4-10.9,64.99-32.23,127.74-34.31v-51.89c-16.67-4.39-28.97-19.57-28.97-37.62v-58.6c0-18.05,12.3-33.23,28.97-37.62V20.23c-71.29,5.11-127.74,64.74-127.74,137.31v132.94Z"
        style="fill:#fff;" />
    <path
        d="M236.96,108.07v58.6c0,10.5,8.54,19.04,19.04,19.04s19.04-8.54,19.04-19.04v-58.6c0-10.5-8.54-19.04-19.04-19.04s-19.04,8.54-19.04,19.04Z"
        style="fill:#fff;" />
    <path
        d="M393.67,157.54c0-72.57-56.45-132.2-127.74-137.31v50.22c16.67,4.39,28.97,19.57,28.97,37.62v58.6c0,18.05-12.3,33.23-28.97,37.62v51.89c62.75,2.08,108.34,23.41,127.74,34.31v-132.94Z"
        style="fill:#fff;" />
    <path
        d="M118.33,354.46c0,75.91,61.76,137.67,137.67,137.67s137.67-61.76,137.67-137.67v-41.17c-21.44-12.74-74.06-39.52-137.67-39.52s-116.23,26.78-137.67,39.52v41.17Z"
        style="fill:#fff;" />
    <path
        d="M256,0h0C168.99,0,98.46,70.53,98.46,157.54v196.92c0,87.01,70.53,157.54,157.54,157.54h0c87.01,0,157.54-70.53,157.54-157.54v-196.92C413.54,70.53,343.01,0,256,0ZM393.67,157.54v132.94c-19.4-10.9-64.99-32.23-127.74-34.31v-51.89c16.67-4.39,28.97-19.57,28.97-37.62v-58.6c0-18.05-12.3-33.23-28.97-37.62V20.23c71.29,5.11,127.74,64.74,127.74,137.31ZM256,89.03c10.5,0,19.04,8.54,19.04,19.04v58.6c0,10.5-8.54,19.04-19.04,19.04s-19.04-8.54-19.04-19.04v-58.6c0-10.5,8.54-19.04,19.04-19.04ZM246.07,20.23v50.22c-16.67,4.39-28.97,19.57-28.97,37.62v58.6c0,18.05,12.3,33.23,28.97,37.62v51.89c-62.75,2.08-108.34,23.41-127.74,34.31v-132.94c0-72.57,56.45-132.2,127.74-137.31ZM256,492.13c-75.91,0-137.67-61.76-137.67-137.67v-41.17c21.44-12.74,74.06-39.52,137.67-39.52s116.23,26.78,137.67,39.52v41.17c0,75.91-61.76,137.67-137.67,137.67Z" />
    <path
        d="M489.25,13.5l-93.87-2.82c-11.96-.36-18.49,13.83-10.43,22.68l16.8,18.45-9.37,8.53c16.72,23.39,27.57,51.25,30.4,81.41l33.28-30.3,16.8,18.45c8.06,8.85,22.79,3.68,23.55-8.27l5.95-93.72c.49-7.65-5.46-14.18-13.12-14.41Z" />
    <path
        d="M110.25,460.19l9.37-8.53c-16.72-23.39-27.57-51.25-30.4-81.41l-33.28,30.3-16.8-18.45c-8.06-8.85-22.79-3.68-23.55,8.27l-5.95,93.72c-.49,7.65,5.46,14.18,13.12,14.41l93.87,2.82c11.96.36,18.49-13.83,10.43-22.68l-16.8-18.45Z" />
</svg>